<svg id="Layer_1" data-name="Layer 1" xmlns="http://www.w3.org/2000/svg" viewBox="0 0 1737.47 587.94"><defs><style>.cls-1{fill:#fff;}.cls-1,.cls-2{stroke:#fff;stroke-miterlimit:10;}.cls-2{fill:#fdfefe;}</style></defs><path class="cls-1" d="M484.87,171.13c-1.91-1.86-3.66-3.39-5.21-5.1-6.06-6.7-12-13.51-18.1-20.18s-12.14-13-18.22-19.53c-1.46-1.56-1.39-3.07,0-4.67,4.21-5,8.24-10.23,12.63-15.1,7.59-8.4,17-14.68,26.07-21.27a89.54,89.54,0,0,1,11.83-6.68c6.36-3.27,12.61-6.86,19.25-9.43,8.67-3.36,17.28-6.85,26.51-8.86,11.49-2.5,23.09-3.8,34.66-5.55a159.9,159.9,0,0,1,33.41-1.21c8.6.5,17.18,1.93,25.72,3.26,6.64,1,13.29,2.27,19.79,4,6,1.58,11.93,3.75,17.8,5.89a180.47,180.47,0,0,1,32.88,16.47,175.08,175.08,0,0,1,22.95,17.31,134.86,134.86,0,0,1,17.79,19.24,143.71,143.71,0,0,1,15.28,24.93,154.16,154.16,0,0,1,9.23,25c1.14,3.93,2.44,7.82,3.36,11.8a89,89,0,0,1,2.33,13c.86,10.84,2.76,21.65,1.86,32.56-.7,8.47-1.61,17-2.93,25.35-1.84,11.79-6.21,22.81-12,33.18a97.68,97.68,0,0,1-12.7,18.34,137.1,137.1,0,0,1-16.93,16.47,150.13,150.13,0,0,1-23.91,15.28,33.92,33.92,0,0,1-6.13,2.28c-1.36.39-2.56.68-2.8,2.32-.31,2,1.3,2.46,2.58,3,3.35,1.49,6.78,2.77,10.11,4.29a140.22,140.22,0,0,1,35.21,22.57,109.43,109.43,0,0,1,23.45,29.21,103.77,103.77,0,0,1,9.91,23.35c2,7.62,4.65,15.1,6.45,22.77a72.24,72.24,0,0,1,1.84,15.3c.16,10.72.1,21.46-.45,32.17-.36,6.86-1.71,13.69-2.74,20.51a38.09,38.09,0,0,1-1.69,6.81c-3.58,10.36-6.5,21-11.12,30.92a128.16,128.16,0,0,1-20,31.27c-6.24,7-12.59,13.89-20.14,19.48-5.62,4.16-11.42,8.1-17.33,11.83-8.65,5.46-18,9.39-27.46,13.35-13,5.46-26.55,8-40.25,10.4-.58.11-1.16.23-1.74.3-16.81,1.92-33.7,3.06-50.58,1.84-11.06-.8-22.07-2.71-33-4.62a171,171,0,0,1-24.39-5.68c-14.13-4.69-27.83-10.44-40.59-18.35a202.85,202.85,0,0,1-41.19-34c-11.11-11.83-21.7-24.14-32.56-36.21-1.38-1.53-1.28-2.83.13-4.19.21-.21.37-.47.58-.67,5.3-5,10.66-10,15.88-15.11,4.8-4.7,9.49-9.51,14.15-14.34,2-2.11,3.82-4.45,5.85-6.57,1.85-1.94,3.34-1.9,5.2.09,1.5,1.6,2.76,3.42,4.24,5.05,7.65,8.43,15.11,17.05,23.08,25.16a274.37,274.37,0,0,0,20.95,19.25,200.79,200.79,0,0,0,21.87,16c9.94,6.15,20.45,11.26,32,14,5.86,1.42,11.82,2.32,17.62,3.72,14.87,3.6,29.82,2.28,44.76,1.73,4.62-.17,9.27-1.43,13.79-2.64a201.51,201.51,0,0,0,21-6.42,93.84,93.84,0,0,0,16.25-8.44,121.62,121.62,0,0,0,14.53-11.17c3.05-2.67,5.55-6,8.17-9.15,9.67-11.6,15.32-25,18.2-39.78s2.59-29.61,1.07-44.36a87.08,87.08,0,0,0-8.1-29.07c-2.47-5.12-4.43-10.49-7.64-15.24a89.88,89.88,0,0,0-32.19-29.13,130.9,130.9,0,0,0-34.75-13.05c-6.27-1.35-12.42-3.25-18.69-4.6a99.3,99.3,0,0,0-13.5-2c-11.72-.88-23.47-1.55-35.21-2.17-9.43-.5-7.57-.64-7.62-7.9-.08-12.21,0-24.43,0-36.64,0-.44,0-.88,0-1.32.15-3.32.57-3.77,3.93-3.81,9.12-.12,18.24-.11,27.36-.33,15.5-.37,30.84-2.51,45.48-7.43,10.29-3.47,20.41-7.83,29.14-14.81,4.79-3.82,9.79-7.34,14.1-11.73a101.42,101.42,0,0,0,19.36-27.46c6.49-13.51,8.61-27.71,7.61-42.4-.66-9.79-2.07-19.58-5.24-28.94a119.19,119.19,0,0,0-6.3-14.5,103.52,103.52,0,0,0-8.81-14,85.53,85.53,0,0,0-29.08-25.48c-7.38-4-15.73-6.31-23.75-9.07a110.21,110.21,0,0,0-12.7-3.19,85.27,85.27,0,0,0-9.52-1.5c-5.55-.55-11.13-1.31-16.69-1.24-11.31.14-22.66.9-33.67,3.56-7.67,1.85-15.07,4.86-22.55,7.47-9.73,3.39-18.14,9.31-26.79,14.66-4.93,3-9.34,7.06-13.61,11-5.34,5-10.29,10.35-15.43,15.55C487.07,169.11,486.12,170,484.87,171.13Z" transform="translate(-11.12 -52.7)"/><path class="cls-1" d="M11.63,633.9c0-3.33,0-5.36,0-7.4.2-32.23.51-64.46.61-96.69q.53-175.29.93-350.58c.08-34.73,0-69.47,0-104.2,0-.45,0-.89,0-1.33.06-4.61.41-5,5.09-5q65.13.14,130.26.32c33.85.13,67.7.4,101.55.61a206.35,206.35,0,0,1,34.64,3.19c4.91.86,9.87,1.48,14.81,2.22a17,17,0,0,1,2.58.5c5.86,1.79,11.72,3.55,17.54,5.45,6.22,2,12.57,3.67,18.38,6.89,4.46,2.49,9.33,4.26,13.71,6.88,6.61,4,13.33,7.91,19.3,12.73A240.39,240.39,0,0,1,393,127.63a123.59,123.59,0,0,1,13.46,17.24c5.1,7.63,9.82,15.55,14.18,23.62,2.92,5.39,4.93,11.27,7.36,16.93,4.93,11.5,7.63,23.6,10.34,35.78a205.28,205.28,0,0,1,4.6,49.89,162.46,162.46,0,0,1-1.13,19.38c-1.28,8.84-3.27,17.58-5.11,26.33q-1.67,7.95-3.82,15.79c-1.31,4.77-2.76,9.53-4.5,14.16-2.69,7.12-5.14,14.4-8.68,21.09-4.42,8.34-8.63,16.79-14.06,24.66A201.21,201.21,0,0,1,390,413.07a162.58,162.58,0,0,1-23.12,21.46,221.11,221.11,0,0,1-33.81,21.24c-4.06,2-8.44,3.4-12.58,5.29a110,110,0,0,1-21.22,6.74c-4.71,1.07-9.46,2-14.24,2.72-8.71,1.3-17.43,2.56-26.19,3.48-5.84.61-11.74.82-17.62.85q-36,.19-72,.13c-2.72,0-5.56.77-8.27-.68V438.14c2-.14,3.66-.36,5.36-.36,24.28-.08,48.57,0,72.85-.25A176.65,176.65,0,0,0,266,435.62c9.75-1.62,19.5-3.32,29-6.64a142.17,142.17,0,0,0,29.73-13.87c8.6-5.47,17-11.42,24.09-19,2.3-2.45,5.07-4.49,7.23-7.06,6.19-7.36,12.54-14.55,17.88-22.66a143.19,143.19,0,0,0,13.21-24.06c3.5-8.51,5.79-17.53,8.45-26.37a103.16,103.16,0,0,0,2.74-11.49,194.37,194.37,0,0,0,3-43,206.48,206.48,0,0,0-1.89-22c-1.08-7.06-2.94-14-4.72-21-1.39-5.38-3-10.71-4.84-16a84.92,84.92,0,0,0-4.36-9.58A102.92,102.92,0,0,0,380.21,183c-4.17-6.52-8.19-13.21-13.06-19.2-4.57-5.63-10-10.54-15.3-15.6a103.83,103.83,0,0,0-16.53-13c-8.17-5.19-16.36-10.28-25.46-13.74-2.31-.87-4.52-2-6.79-3-9.47-4.12-19.58-5.9-29.58-8.16-15.37-3.47-31-2.53-46.49-2.65-47.69-.35-95.38-.28-143.06-.41-9.86,0-19.72-.24-29.58-.25-4.58,0-5,.4-5.21,5.07-.14,2.64-.07,5.29-.07,7.94q-.49,176.84-1,353.67-.15,61.38,0,122.75c0,4-1.07,7-4.13,9.61-8,6.83-15.9,13.82-23.79,20.79-1.63,1.45-3,3.18-4.65,4.63A30.66,30.66,0,0,1,11.63,633.9Z" transform="translate(-11.12 -52.7)"/><path class="cls-1" d="M162.32,391.21V349.72c1.69-.07,3.25-.2,4.8-.2q33.56-.07,67.12-.14c11.09,0,22.09-1.49,32.31-5.66,6.12-2.5,11.78-6.55,17-10.73,11.19-9,18.43-20.84,23.91-34.06a92.66,92.66,0,0,0,7-35.14c.08-14.8-3.08-29-11.19-41.88-8.63-13.72-20.72-22.84-35.77-28.15a71.16,71.16,0,0,0-23-3.83c-33.85-.32-67.71-.34-101.56-.43-4.49,0-4.66.13-4.67,4.78q-.12,47.46-.15,94.93-.08,86.32-.12,172.65-.08,83-.23,166c0,3.47-.61,4.17-4,4.18q-14.34,0-28.69,0c-5.13,0-5.23-.17-5.23-5.2q0-37.32,0-74.62,0-193.85.12-387.69c0-2.35,0-4.71.11-7.06a2.92,2.92,0,0,1,3-3.1c4.08-.31,8.15-1,12.23-1,3.63,0,7.27.92,10.91.93,38.41.16,76.83.11,115.24.39a156.76,156.76,0,0,1,24.58,2,104.06,104.06,0,0,1,21.54,6,101.56,101.56,0,0,1,21.26,11.21,89.08,89.08,0,0,1,18,16.64,102,102,0,0,1,17,31.5,112.72,112.72,0,0,1,6,38.56c-.15,6,.16,12.1-.32,18.1a185,185,0,0,1-2.73,19.15,96.26,96.26,0,0,1-4.15,16.52c-3.06,8-5.69,16.26-10.43,23.61-5.09,7.88-10.4,15.54-17.36,21.88a144.14,144.14,0,0,1-12.85,10.56,99.7,99.7,0,0,1-27.14,13.95c-4.73,1.55-9.32,3.47-14.28,4.16-7.85,1.07-15.71,2.73-23.58,2.87-23.69.4-47.39.2-71.09.21C164.85,391.57,163.85,391.37,162.32,391.21Z" transform="translate(-11.12 -52.7)"/><path class="cls-2" d="M1207.63,410.54l-15.32,1c-.24-3.39-.54-5.93-.57-8.47-.16-18.11-.06-36.22-.46-54.33s-18.22-28.93-34.8-21.2c-10,4.69-15.78,11.53-15.22,23.68.75,16.43,0,32.93-.11,49.39-.1,12-2.93,13.8-14.86,9,0-8.28,0-16.79,0-25.29,0-20.41.13-40.82,0-61.23,0-4.28-.16-8,5.15-9,4.72-.88,7,.63,9.23,6.32.58,1.47,1.26,2.89,1.93,4.4,5.55-3.41,10.52-6.77,15.77-9.63,11.6-6.32,22.36-1.77,32.8,3.34,2,1,3.3,3.85,4.41,6.11,3.23,6.56,8,7.23,12.45,1.16,7.94-10.83,18.86-13.59,31.27-11.6,16.4,2.62,24.23,14.19,25.75,29.22.79,7.83.32,15.79.36,23.69.07,12.84.22,25.69,0,38.53-.07,5.64-2.86,7.67-8.15,6.79-3.32-.56-5.26-2.18-5.3-5.89-.12-11.18-.32-22.35-.69-33.52-.33-9.86-.71-19.73-1.45-29.56-.84-11.14-12.17-19.13-23.29-16.89-11.92,2.41-18.8,9.84-21.61,21.37a8.71,8.71,0,0,0,.08,3.9C1209.43,370.72,1205.58,389.83,1207.63,410.54Z" transform="translate(-11.12 -52.7)"/><path class="cls-2" d="M1265,204.59c-2.47.3-4.68.73-6.89.82-5.06.19-7.18-2.58-6.89-7.39.33-5.58,1-11.15,1.11-16.73.15-12.48.09-25-.1-37.44a43.14,43.14,0,0,0-1.46-8.74c-2.63-11.66-9.59-16.49-22.15-15.48s-20.08,7.92-20.25,19.47c-.25,17.1,0,34.21.06,51.32,0,2,0,4-.1,5.93-.34,10-1.45,10.78-12.82,8.22-.15-2.64-.44-5.51-.45-8.38-.11-17.11-.11-34.22-.24-51.33a44,44,0,0,0-.82-8.81c-3.49-15.92-17.94-22.46-32.15-14.27-7.6,4.39-13,10.1-12.62,20.32.64,16.09,0,32.23,0,48.35,0,4.57,0,9.14,0,14.52l-10.89,1.52c-.79-2-1.66-3.19-1.66-4.36.11-26.29.33-52.58.47-78.86,0-3.28-.84-6.67-.21-9.79a9.15,9.15,0,0,1,4.37-5.51c.9-.48,3.78,1.61,5,3.14,3.91,4.83,7.08,6.25,11.21,2.36,7-6.55,15.12-7.35,23.8-7,8,.28,14.43,3.16,18.11,11,2.13,4.52,6.53,4.74,10.28,1.06,13.6-13.38,24.75-15.37,41.42-7.83,10.33,4.68,14.33,13.62,14.65,23.7.68,21.7.25,43.43.2,65.15A28.89,28.89,0,0,1,1265,204.59Z" transform="translate(-11.12 -52.7)"/><path class="cls-2" d="M854.46,602.3h-16a59.46,59.46,0,0,1-.75-6.43q.11-54.84.3-109.68c0-9.81.08-10.05,9.84-10.11,16.47-.11,33-.41,49.39.41,10.57.52,20.63,4.27,27.44,13,17.4,22.26,9.61,52.65-16.31,63.75a47.36,47.36,0,0,1-15.17,3.38c-8.86.6-17.78.3-26.67.4-10.77.11-11.56.9-11.61,12.06,0,7.58.13,15.16.09,22.73C855,595,854.67,598.24,854.46,602.3Zm.7-86.8h0c0,5.92-.12,11.84,0,17.75.22,8,1.19,9.29,9.08,9.35,10.52.08,21-.35,31.55-.86a16.35,16.35,0,0,0,7.42-2.28c11.47-7,16.93-18.07,14.37-29.63s-13.6-21.46-25.7-22.13c-9.51-.53-19.07-.43-28.6-.24-6.74.14-7.84,1.34-8.13,8.31C855,502.34,855.16,508.92,855.16,515.5Z" transform="translate(-11.12 -52.7)"/><path class="cls-2" d="M839.15,284.72c2.21-.5,3.49-1,4.76-1,17.43,0,34.89-.41,52.29.39,21.31,1,34.77,17.84,35.6,38.38,1.1,27.41-18.73,41.28-41.58,41.94-8.88.26-17.76.24-26.64.35-7.39.08-9.31,1.76-9.47,9.23-.18,8.55.06,17.11,0,25.66,0,3.21-.3,6.42-.49,10.36H839.15Zm15.46,38h.07c0,6.56-.33,13.14.09,19.68s2.81,8.77,9.35,8.75c10.17,0,20.38-.11,30.49-1,13.7-1.25,24.56-16.05,22.41-29.55a30.07,30.07,0,0,0-28.37-25.08c-7.87-.23-15.76-.22-23.63-.09-8.22.13-9.89,1.62-10.34,9.62C854.35,310.89,854.61,316.81,854.61,322.71Z" transform="translate(-11.12 -52.7)"/><path class="cls-2" d="M1060.61,365.24H1031c-13.62,0-15.11,2.78-8.57,15a40.82,40.82,0,0,0,25.84,20.86c10.36,2.9,20.11,1.58,28.55-5.83a51.5,51.5,0,0,1,8.6-6.45c2.74-1.55,5.94-3,9-3.15,5.1-.24,7,3.49,4.36,7.92a40.94,40.94,0,0,1-28.06,19.95c-14.46,2.68-29.54,3.5-42.77-5.78-15.2-10.66-24.67-24.45-25.85-43.68-1.22-19.89,8.89-33.61,23.47-44.59,5-3.75,11.87-5.7,18.17-6.76,12.15-2,24.47-1.27,35.67,4.34,10.35,5.17,17.38,13.92,20.95,24.91,1.71,5.24,2.15,10.95,2.78,16.49.55,4.89-2,7.27-7,7.24-11.85-.07-23.7,0-35.55,0Zm28.09-12.75c-2-5.14-3-9.84-5.45-13.45-9.16-13.22-22.65-16-37.5-13.62-12.23,2-20.56,9.24-24.94,21-2.85,7.66-1.27,10.46,6.77,10.43,16.4-.06,32.81-.16,49.2-.71C1080.45,356,1084.06,354,1088.7,352.49Z" transform="translate(-11.12 -52.7)"/><path class="cls-2" d="M838.27,204.17V80c2.14-.44,4.28-1.26,6.42-1.27,17.13-.1,34.25,0,51.37-.07a32.65,32.65,0,0,1,19.38,6.16c4.36,3.08,7.9,6.67,9.59,12,1.58,5,4,9.72,5.7,14.68,2.63,7.58-1.86,14.14-4.05,20.71-5.34,16-18.35,22.32-34.11,23.48-10.17.74-20.41.41-30.62.63-8.22.18-8.87.74-9.08,9.12-.23,9.22-.23,18.44-.23,27.67C852.64,205.52,852.26,205.89,838.27,204.17Zm16.06-59.49c10.48,0,20.94-.18,31.39.07,6.9.16,12.26-2.9,18.14-6.05,14.48-7.75,14-35-.08-42.5-5.89-3.15-11.27-6.18-18.15-6-7.88.22-15.77-.11-23.65,0-8.47.15-9.21.46-9.48,8.82-.43,13.43-.16,26.88,0,40.31C852.49,140.89,853.5,142.39,854.33,144.68Z" transform="translate(-11.12 -52.7)"/><path class="cls-2" d="M1114.45,158.68c0,9.15.79,18.36-4.44,26.8-9.12,14.71-21.75,23.36-39.31,23.83-12.45.33-24.78.91-36.47-5.62-14.17-7.93-21-20.11-23-35.45-.75-5.83.32-11.88-.24-17.76-1.73-18.26,22.27-44.09,41.5-43.92,11.86.1,23.43-.49,35,3.75,12.69,4.67,28.39,23.12,27,36.52C1114.12,150.74,1114.45,154.72,1114.45,158.68Zm-50.59-38.85c-7.28-.17-14.89.62-21.64,5.74-11.35,8.6-15.91,19.74-15.88,34,0,24.38,21.89,45.67,49.17,38,5.54-1.55,10.55-3.86,14.73-8.81,8.69-10.28,11.36-21.83,10.57-34.71C1099.62,134.32,1086,118.51,1063.86,119.83Z" transform="translate(-11.12 -52.7)"/><path class="cls-2" d="M949.11,535.62c-.81-12.16,6.92-23.9,18.42-27.31,14.33-4.25,28.76-6.66,43.43-.55,10.82,4.51,18.74,12.23,19.31,23.53,1.14,22.94.34,46,.34,69.88l-10.45,1.55c-.89-3.83-1.61-6.91-2.44-10.47-3.65-2.57-6.82-1.38-10.3,1.35-13,10.17-27.78,12.74-43.62,9.1-9.2-2.12-16.33-7.51-18.74-16.94s1.23-16.78,8.58-23.5c11.81-10.83,26.42-10.45,40.61-12.15,4.56-.55,9.2-.29,13.81-.49,5.18-.24,7.36-3.07,7.83-8.21,1.42-15.46-8-24.44-19.21-24.87-7.11-.28-14.51-.08-21.34,1.63-4.34,1.08-8.25,4.52-10.32,9.74C961.77,536.14,958.93,537.13,949.11,535.62ZM995,560.25c-9.77.37-19.64-.43-27.87,6.82-4.3,3.79-7,8.11-5.72,13.66a13.8,13.8,0,0,0,10.52,10.5c14.57,3.68,27.21.18,37.17-11.13a27,27,0,0,0,5.73-11.09c1.48-6.11-.77-8.45-7.06-8.72C1003.53,560.1,999.27,560.25,995,560.25Z" transform="translate(-11.12 -52.7)"/><path class="cls-2" d="M1425.82,387.67c-.63,2.72-.5,5.29-1.69,6.86-8.42,11.12-19,18.89-33.45,20-11.17.83-22.31,1.44-32.77-3.92-15.5-7.93-24.85-20.18-25.55-37.84-.33-8.48-1.06-17.67,1.63-25.41,6.16-17.68,18.2-29.65,38-32.67,9.74-1.49,19.16-1.34,28.18,1.77a41.42,41.42,0,0,1,15.57,9.62c8.21,8.33,13.4,18.62,13.64,30.68.13,6.6-1.45,8.19-8.1,8.28-18.44.24-36.88.19-55.32.34a62.66,62.66,0,0,0-11.8.78c-5.63,1.14-8.09,4.86-6,10.21,4.87,12.6,12.18,23.48,26.29,27,13.5,3.35,25.21-.45,34.63-10.82C1415,386,1414.93,386,1425.82,387.67Zm-12.91-34c-1.06-11.56-4.93-18.52-12-23.14-15.44-10-39.45-6.42-49.76,14.68-3.95,8.1-2,11.51,6.89,11.41,13.75-.17,27.51,0,41.25-.43C1403.65,356,1408,354.57,1412.91,353.63Z" transform="translate(-11.12 -52.7)"/><path class="cls-2" d="M1539.34,160.28h-74.55c-3,11.83.52,19.7,8.59,26.69,11.16,9.66,23.54,10.84,36.62,6.79,6.08-1.88,11.5-6,17.08-9.38,3.76-2.26,6.13-.88,8.46,2.88-4,11.72-14.24,15.58-25,18.41-11.34,3-22.78,2.34-34.13-.44-11.91-2.91-18-12.25-24-21.65-8.46-13.05-8.74-27.53-5.42-41.68,1.69-7.17,6.81-14,11.71-19.88,16.89-20.26,48.3-16.9,64-7.69C1537.64,123.08,1544.6,141.54,1539.34,160.28Zm-74.94-9.45c18.28,0,36.29.32,54.27-.16,7.18-.19,9.47-5.76,6.23-12.85-10.6-23.28-41.76-23.27-55.33-7.46C1464.8,135.93,1460.59,142.78,1464.4,150.83Z" transform="translate(-11.12 -52.7)"/><path class="cls-2" d="M1391.75,580.72c-6.17,10.92-12.75,20.31-25.88,22.18-7.44,1.05-14.89,2.68-22.35,2.76-27,.28-44.76-23.77-44.18-44.46.36-12.7,1.21-24.8,8.38-35.77,11-16.9,35.3-22.9,52-19.75,21.21,4,30.16,19.11,36.92,36.73,1.54,4,.88,8.81,1.3,14.08-4.49.37-7.67.85-10.85.86-20.07.1-40.14,0-60.21.14-11.77,0-15.25,4.36-10.41,15.21,9,20.13,24.07,27.78,46.48,21.15a24.1,24.1,0,0,0,13.36-9.27C1379.6,579.79,1384,576.36,1391.75,580.72Zm-43.3-32.09c2.3,0,4.6,0,6.89,0,5.57-.08,11.16,0,16.72-.32,8.56-.48,10.58-3.62,7.46-11.37-2.06-5.15-4.5-9.81-9-13.65-13.91-11.8-45.52-9.06-53.11,14-2.55,7.74-1,11,7.44,11.3C1332.69,548.87,1340.58,548.64,1348.45,548.63Z" transform="translate(-11.12 -52.7)"/><path class="cls-2" d="M1578.14,204.44a74.58,74.58,0,0,1-7.47.81,49.55,49.55,0,0,1-6.52-.83V112.09c10.92-4.21,12.35-3.45,15.22,8.24,3.1,1.52,5.27.21,7.43-2.25,14-16,38.86-12.39,51.15-.94,8.07,7.51,11.6,16,11.35,27-.41,17.41-.08,34.85-.12,52.27,0,2.57-.29,5.15-.5,8.59h-15.1c-.22-3.85-.54-7.06-.56-10.27-.07-17.1-.37-34.2,0-51.29.34-14.73-6.7-20.15-19.33-22.77-18.83-3.91-34.74,9.47-34.85,28.58-.08,14.79.05,29.59,0,44.38C1578.83,197.11,1578.4,200.63,1578.14,204.44Z" transform="translate(-11.12 -52.7)"/><path class="cls-2" d="M1554.43,527.81c-5.31,1.92-9.74,1.39-13.86-3.37-8-9.28-25.88-11.94-38.52-6.35-4.4,1.94-8.15,7.65-10,12.47-2.12,5.58,5.22,13.34,12.79,14.81s14.94,2.37,22.36,3.83c6.08,1.21,12.26,2.37,18.07,4.44,9.35,3.32,15.36,10.09,16.47,20.15,1,9.46-5.94,20.65-14.66,24.89-11.7,5.7-24.28,5.32-36.68,4.71-7.38-.36-15.46.52-21.8-4.7a63,63,0,0,1-11-11c-1.32-1.8-1.31-6-.08-7.94,1.87-3,5.7-3.11,8.89-1.36a29.7,29.7,0,0,1,7.21,5c9.33,9.59,20.9,9.05,32.9,8.36,8.61-.49,13.8-5.06,18-11.66,3.19-5,3.07-6.88-2.09-10.49-6.35-4.43-12.85-8-21.18-8.92a109.39,109.39,0,0,1-28.39-7.11c-11.73-4.64-14.58-11.33-13.47-25.16.79-9.73,7.39-17.4,16.91-20.79,15-5.32,29.62-4.59,44.28.9C1548.71,511.58,1554.73,519.71,1554.43,527.81Z" transform="translate(-11.12 -52.7)"/><path class="cls-2" d="M1277.08,601.9h-13.91c-.31-3.21-.76-5.76-.76-8.3,0-16.46-.25-32.93.28-49.38.44-13.64-3.11-20.38-18-25.31-18.83-6.21-36.62,6.36-36.63,26.06,0,16.12.07,32.25,0,48.38,0,2.55-.38,5.1-.59,7.77a21.47,21.47,0,0,1-4.28,1c-10.37,0-11-.94-10.82-11.31.22-17.74-.32-35.49.08-53.22.21-9.43,1.74-18.84,2.75-29.05h8.36c.48,3.18.91,6,1.57,10.44,3.15-1.52,6.09-2.11,7.77-3.89,12.47-13.21,35.35-13.25,48.44-5,9.23,5.8,17,14.34,16.72,27.23-.38,20.08-.11,40.16-.17,60.24A26.44,26.44,0,0,1,1277.08,601.9Z" transform="translate(-11.12 -52.7)"/><path class="cls-2" d="M1422.31,204.3c-3.19.33-4.48.57-5.77.57-8.27,0-9.19-.85-9.17-8.81,0-15.47.13-30.94.19-46.4,0-2.64-.12-5.27,0-7.9.39-13.26-8.45-20.15-20.74-21.93-20.27-2.94-31.54,7.82-32.74,30.62-.78,14.76,0,29.61,0,44.41,0,3.16-.46,6.31-.73,9.83h-12.52c-.49-2.47-1.38-4.89-1.39-7.31q-.09-39,.08-78c0-10.29,1.14-11.1,12.12-9.59.36,1.68.74,3.54,1.15,5.39.34,1.54.73,3.08,1.35,5.7,2.44-1.46,4.65-2.17,6-3.66,13.45-15.11,35.3-12.86,47-5a33.65,33.65,0,0,1,15.09,27.51c.39,16.12.14,32.25.16,48.37C1422.32,193.26,1422.31,198.43,1422.31,204.3Z" transform="translate(-11.12 -52.7)"/><path class="cls-2" d="M1690.12,79.64h17.31c0,5.38,0,10.18,0,15,.09,15.9.09,15.89,15.68,16,8.12.07,16.25.19,24.1.28,2,10.13,1,11.48-7,11.49s-15.79-.15-23.65.36c-8.44.56-9.44,1.7-9.5,10.39-.16,20.4,0,40.8-.08,61.21,0,3.21-.26,6.41-.42,10.06a45.61,45.61,0,0,1-6.25,1.05c-8,.09-9-.74-9-9.06,0-20.4.07-40.8.19-61.2.07-10.7-.82-11.67-11.78-11.49-3.63.06-7.51.54-9.62-3.31-2.73-5,.93-9.76,7.74-10.35,11.92-1,12-1,12.22-12.7C1690.22,91.85,1690.12,86.32,1690.12,79.64Z" transform="translate(-11.12 -52.7)"/><path class="cls-2" d="M1174.94,591.13v11.45c-11.62.25-23,1.36-34.31-.65-4.88-.87-6.92-4.5-6.93-9.38,0-9.55-.22-19.09-.23-28.64,0-11.85.08-23.7.09-35.54,0-8.22,0-8.49-8.16-10.4-3.72-.87-4.94-2.85-4.94-6.12s1.16-6.09,4.87-6.24c7.32-.29,8.24-5.13,8.27-10.83,0-3.95.24-7.9.12-11.83-.29-9.83.19-10.33,10.87-9.53,3,6.82,1,14.14,1.25,21.22.42,11.07,1.54,12.5,12.44,12.59,3.94,0,7.89.12,11.82.36a15.75,15.75,0,0,1,3.57,1.07c1.68,9.75,1,10.63-7.92,11.11-3.61.2-7.25.12-10.84.52-6.31.69-8.48,2.57-8.56,8.59-.24,17.44-.3,34.89,0,52.34.09,6.54,3.3,9.5,9.82,9.84C1162,591.37,1167.86,591.13,1174.94,591.13Z" transform="translate(-11.12 -52.7)"/><path class="cls-2" d="M966,205.27H952.39c-.55-2-1.32-3.55-1.33-5.1q-.31-39.37-.44-78.77c0-1.31.07-2.63,0-3.94-.23-4.35.54-7.94,5.89-8.39s7.78,1.62,8.89,7.59c.23,1.25.59,2.46.86,3.55,3.68,1.38,5.38-.37,7.77-2.59,6.2-5.76,12.82-11.24,22.24-10.66,3.34.2,6.88,0,7.84,4.17.68,3-3.87,8.65-7.15,9.26-3.47.66-7.2.66-10.37,2-14,5.92-20.05,17.07-19.87,31.95.17,14.11.43,28.22.47,42.33C967.2,199.46,966.41,202.24,966,205.27Z" transform="translate(-11.12 -52.7)"/><path class="cls-2" d="M968.22,411.53l-14.92-1c0-7.58,0-14.09,0-20.61-.14-21.69-.39-43.38-.39-65.06,0-4.25-2-9.6,4.35-11.65,5.41-1.76,9,0,13.84,7.52,2.1-.74,4.44-1.55,6.76-2.38,5.83-2.08,11.53-4.79,17.53-6.07,4.5-1,6.76,2.8,4.54,6.84-1.67,3.07-3.27,6.5-7.84,6.48a15.62,15.62,0,0,0-5.61,1.58c-16.3,6.6-17.75,8.7-17.77,26.08s.07,34.82.07,52.24C968.78,407.1,968.5,408.68,968.22,411.53Z" transform="translate(-11.12 -52.7)"/><path class="cls-2" d="M1415.38,508.14h13.8c.68,3.31,1.31,6.37,2.11,10.3,2.58-.85,5.43-.9,6.45-2.29,4.93-6.67,12.22-8.45,19.54-10.15,6.39-1.48,8.27.61,7,7.28a43.94,43.94,0,0,1-1.56,4.84c-13.4-.78-23.87,4.07-29.55,16.16-2.12,4.51-2.52,10.1-2.64,15.22-.36,14.44-.15,28.89-.22,43.34,0,2.56-.32,5.13-.54,8.47h-14.35Z" transform="translate(-11.12 -52.7)"/><path class="cls-2" d="M1451.1,316.9l10.69-1,5.62,10.26c2.41-1.65,4.13-3,6-4.08,5-3,9.92-6.3,15.22-8.71a6.09,6.09,0,0,1,8.36,4.4,7,7,0,0,1-5.18,8.1c-4,1.16-8.31,1.89-11.94,3.83-7.94,4.23-13.21,10.66-13.23,20.21,0,19.68,0,39.36,0,58.93-5.23,3.82-10.2,2.81-15.5,1.85Z" transform="translate(-11.12 -52.7)"/><path class="cls-2" d="M1068.24,601.64h-10.31a56.88,56.88,0,0,1-1-7.1q-.18-39.48-.2-78.95a42.43,42.43,0,0,1,.15-4.92c.45-3.75,3.34-4.6,6.38-4.9s4.6,1.38,5.5,4.38c2.84,9.41,4.65,9.79,11.84,3,5.59-5.31,11.44-9.78,19.9-9,3.58.31,6.59.46,7,5,.39,4.88-1.48,8-6.28,7.88-8.73-.25-14.88,4.4-20.91,9.51-8.33,7-11.17,16.56-11.32,27-.17,12.5-.1,25-.21,37.5C1068.74,594.19,1068.46,597.4,1068.24,601.64Z" transform="translate(-11.12 -52.7)"/><path class="cls-2" d="M1309.71,410.66h-14.42V316.94l13-1.06C1311.14,323.44,1312,394.33,1309.71,410.66Z" transform="translate(-11.12 -52.7)"/><path class="cls-2" d="M1307,205h-11.59c-.46-2.64-1.25-5.11-1.26-7.6q-.18-40.36-.1-80.75c0-6.79,2.82-9.12,9.09-7.44,1.94.52,3.63,3,4.78,5,.72,1.25.25,3.21.25,4.85q0,39.39-.1,78.78C1308,200.1,1307.37,202.3,1307,205Z" transform="translate(-11.12 -52.7)"/><path class="cls-2" d="M1299,277c4.9-.2,9.87,3.51,10.11,7.56.32,5.26-5.18,10.77-10.72,10.74-4.93,0-11-4.52-10.84-8C1287.71,282.18,1293.2,277.26,1299,277Z" transform="translate(-11.12 -52.7)"/></svg>